<mxfile host="app.diagrams.net" modified="2023-11-12T21:55:16.198Z" agent="Mozilla/5.0 (X11; Linux x86_64; rv:109.0) Gecko/20100101 Firefox/118.0" etag="1QKeVQCqjBxOKXoXgOZ0" version="22.1.0" type="device">
  <diagram name="Página-1" id="yCtt8b40rWp_f286laDK">
    <mxGraphModel dx="1576" dy="757" grid="1" gridSize="10" guides="1" tooltips="1" connect="1" arrows="1" fold="1" page="1" pageScale="1" pageWidth="827" pageHeight="1169" math="0" shadow="0">
      <root>
        <mxCell id="0" />
        <mxCell id="1" parent="0" />
        <mxCell id="k8lfUsQyh5Yayv7SvFgP-45" style="edgeStyle=orthogonalEdgeStyle;rounded=0;orthogonalLoop=1;jettySize=auto;html=1;entryX=0;entryY=0.5;entryDx=0;entryDy=0;endArrow=none;endFill=0;curved=1;" parent="1" source="k8lfUsQyh5Yayv7SvFgP-13" target="k8lfUsQyh5Yayv7SvFgP-6" edge="1">
          <mxGeometry relative="1" as="geometry" />
        </mxCell>
        <mxCell id="k8lfUsQyh5Yayv7SvFgP-52" value="" style="edgeStyle=orthogonalEdgeStyle;rounded=0;orthogonalLoop=1;jettySize=auto;html=1;endArrow=none;endFill=0;exitX=0.5;exitY=1;exitDx=0;exitDy=0;curved=1;" parent="1" source="k8lfUsQyh5Yayv7SvFgP-1" target="k8lfUsQyh5Yayv7SvFgP-2" edge="1">
          <mxGeometry relative="1" as="geometry" />
        </mxCell>
        <mxCell id="k8lfUsQyh5Yayv7SvFgP-1" value="S" style="ellipse;whiteSpace=wrap;html=1;aspect=fixed;fillColor=#e51400;fontColor=#ffffff;strokeColor=#B20000;" parent="1" vertex="1">
          <mxGeometry x="1480" y="760" width="80" height="80" as="geometry" />
        </mxCell>
        <mxCell id="k8lfUsQyh5Yayv7SvFgP-53" value="" style="edgeStyle=orthogonalEdgeStyle;rounded=0;orthogonalLoop=1;jettySize=auto;html=1;endArrow=none;endFill=0;" parent="1" source="k8lfUsQyh5Yayv7SvFgP-2" target="k8lfUsQyh5Yayv7SvFgP-3" edge="1">
          <mxGeometry relative="1" as="geometry" />
        </mxCell>
        <mxCell id="k8lfUsQyh5Yayv7SvFgP-2" value="T" style="ellipse;whiteSpace=wrap;html=1;aspect=fixed;fillColor=#e51400;fontColor=#ffffff;strokeColor=#B20000;" parent="1" vertex="1">
          <mxGeometry x="1480" y="880" width="80" height="80" as="geometry" />
        </mxCell>
        <mxCell id="k8lfUsQyh5Yayv7SvFgP-54" value="" style="edgeStyle=orthogonalEdgeStyle;rounded=0;orthogonalLoop=1;jettySize=auto;html=1;endArrow=none;endFill=0;" parent="1" source="k8lfUsQyh5Yayv7SvFgP-3" target="k8lfUsQyh5Yayv7SvFgP-24" edge="1">
          <mxGeometry relative="1" as="geometry" />
        </mxCell>
        <mxCell id="k8lfUsQyh5Yayv7SvFgP-3" value="U" style="ellipse;whiteSpace=wrap;html=1;aspect=fixed;fillColor=#e51400;fontColor=#ffffff;strokeColor=#B20000;" parent="1" vertex="1">
          <mxGeometry x="1600" y="880" width="80" height="80" as="geometry" />
        </mxCell>
        <mxCell id="k8lfUsQyh5Yayv7SvFgP-51" style="rounded=0;orthogonalLoop=1;jettySize=auto;html=1;entryX=1;entryY=0.5;entryDx=0;entryDy=0;endArrow=none;endFill=0;edgeStyle=orthogonalEdgeStyle;curved=1;" parent="1" source="k8lfUsQyh5Yayv7SvFgP-4" target="k8lfUsQyh5Yayv7SvFgP-1" edge="1">
          <mxGeometry relative="1" as="geometry" />
        </mxCell>
        <mxCell id="k8lfUsQyh5Yayv7SvFgP-4" value="R" style="ellipse;whiteSpace=wrap;html=1;aspect=fixed;fillColor=#e51400;fontColor=#ffffff;strokeColor=#B20000;" parent="1" vertex="1">
          <mxGeometry x="1480" y="520" width="80" height="80" as="geometry" />
        </mxCell>
        <mxCell id="k8lfUsQyh5Yayv7SvFgP-49" value="" style="edgeStyle=orthogonalEdgeStyle;rounded=0;orthogonalLoop=1;jettySize=auto;html=1;endArrow=none;endFill=0;curved=1;entryX=0;entryY=0.5;entryDx=0;entryDy=0;" parent="1" source="k8lfUsQyh5Yayv7SvFgP-5" target="k8lfUsQyh5Yayv7SvFgP-4" edge="1">
          <mxGeometry relative="1" as="geometry" />
        </mxCell>
        <mxCell id="k8lfUsQyh5Yayv7SvFgP-5" value="Q" style="ellipse;whiteSpace=wrap;html=1;aspect=fixed;fillColor=#e51400;fontColor=#ffffff;strokeColor=#B20000;" parent="1" vertex="1">
          <mxGeometry x="1320" y="640" width="80" height="80" as="geometry" />
        </mxCell>
        <mxCell id="k8lfUsQyh5Yayv7SvFgP-48" value="" style="edgeStyle=orthogonalEdgeStyle;rounded=0;orthogonalLoop=1;jettySize=auto;html=1;endArrow=none;endFill=0;curved=1;" parent="1" source="k8lfUsQyh5Yayv7SvFgP-6" target="k8lfUsQyh5Yayv7SvFgP-5" edge="1">
          <mxGeometry relative="1" as="geometry" />
        </mxCell>
        <mxCell id="HiWu-JYwDWKjyQeRnMct-3" style="edgeStyle=orthogonalEdgeStyle;rounded=0;orthogonalLoop=1;jettySize=auto;html=1;entryX=1;entryY=0.5;entryDx=0;entryDy=0;curved=1;endArrow=none;endFill=0;" parent="1" source="k8lfUsQyh5Yayv7SvFgP-6" target="k8lfUsQyh5Yayv7SvFgP-8" edge="1">
          <mxGeometry relative="1" as="geometry">
            <Array as="points">
              <mxPoint x="1150" y="760" />
              <mxPoint x="1150" y="970" />
              <mxPoint x="1060" y="970" />
            </Array>
          </mxGeometry>
        </mxCell>
        <mxCell id="k8lfUsQyh5Yayv7SvFgP-6" value="P" style="ellipse;whiteSpace=wrap;html=1;aspect=fixed;fillColor=#0050ef;fontColor=#ffffff;strokeColor=#001DBC;" parent="1" vertex="1">
          <mxGeometry x="1161" y="720" width="80" height="80" as="geometry" />
        </mxCell>
        <mxCell id="k8lfUsQyh5Yayv7SvFgP-42" value="" style="edgeStyle=orthogonalEdgeStyle;rounded=0;orthogonalLoop=1;jettySize=auto;html=1;endArrow=none;endFill=0;curved=1;" parent="1" source="k8lfUsQyh5Yayv7SvFgP-7" target="k8lfUsQyh5Yayv7SvFgP-9" edge="1">
          <mxGeometry relative="1" as="geometry" />
        </mxCell>
        <mxCell id="k8lfUsQyh5Yayv7SvFgP-46" style="edgeStyle=orthogonalEdgeStyle;rounded=0;orthogonalLoop=1;jettySize=auto;html=1;entryX=0;entryY=0.5;entryDx=0;entryDy=0;endArrow=none;endFill=0;curved=1;" parent="1" source="k8lfUsQyh5Yayv7SvFgP-7" target="k8lfUsQyh5Yayv7SvFgP-6" edge="1">
          <mxGeometry relative="1" as="geometry" />
        </mxCell>
        <mxCell id="k8lfUsQyh5Yayv7SvFgP-7" value="Ñ" style="ellipse;whiteSpace=wrap;html=1;aspect=fixed;fillColor=#0050ef;fontColor=#ffffff;strokeColor=#001DBC;" parent="1" vertex="1">
          <mxGeometry x="960" y="640" width="80" height="80" as="geometry" />
        </mxCell>
        <mxCell id="k8lfUsQyh5Yayv7SvFgP-8" value="N" style="ellipse;whiteSpace=wrap;html=1;aspect=fixed;fillColor=#0050ef;fontColor=#ffffff;strokeColor=#001DBC;" parent="1" vertex="1">
          <mxGeometry x="980" y="940" width="80" height="80" as="geometry" />
        </mxCell>
        <mxCell id="k8lfUsQyh5Yayv7SvFgP-47" style="edgeStyle=orthogonalEdgeStyle;rounded=0;orthogonalLoop=1;jettySize=auto;html=1;entryX=0;entryY=0.5;entryDx=0;entryDy=0;endArrow=none;endFill=0;curved=1;" parent="1" source="k8lfUsQyh5Yayv7SvFgP-9" target="k8lfUsQyh5Yayv7SvFgP-5" edge="1">
          <mxGeometry relative="1" as="geometry" />
        </mxCell>
        <mxCell id="k8lfUsQyh5Yayv7SvFgP-9" value="O" style="ellipse;whiteSpace=wrap;html=1;aspect=fixed;fillColor=#e51400;fontColor=#ffffff;strokeColor=#B20000;" parent="1" vertex="1">
          <mxGeometry x="1161" y="560" width="80" height="80" as="geometry" />
        </mxCell>
        <mxCell id="Zbi65PwatEqZR5sRQV1F-5" style="edgeStyle=none;curved=1;rounded=0;orthogonalLoop=1;jettySize=auto;html=1;fontSize=12;startSize=8;endSize=8;endArrow=none;endFill=0;" parent="1" source="k8lfUsQyh5Yayv7SvFgP-10" target="k8lfUsQyh5Yayv7SvFgP-9" edge="1">
          <mxGeometry relative="1" as="geometry" />
        </mxCell>
        <mxCell id="k8lfUsQyh5Yayv7SvFgP-10" value="L&lt;br&gt;" style="ellipse;whiteSpace=wrap;html=1;aspect=fixed;fillColor=#e51400;fontColor=#ffffff;strokeColor=#B20000;" parent="1" vertex="1">
          <mxGeometry x="1161" y="360" width="80" height="80" as="geometry" />
        </mxCell>
        <mxCell id="k8lfUsQyh5Yayv7SvFgP-43" value="" style="edgeStyle=orthogonalEdgeStyle;rounded=0;orthogonalLoop=1;jettySize=auto;html=1;endArrow=none;endFill=0;curved=1;entryX=0;entryY=0.5;entryDx=0;entryDy=0;" parent="1" source="k8lfUsQyh5Yayv7SvFgP-11" target="k8lfUsQyh5Yayv7SvFgP-8" edge="1">
          <mxGeometry relative="1" as="geometry" />
        </mxCell>
        <mxCell id="k8lfUsQyh5Yayv7SvFgP-44" style="edgeStyle=orthogonalEdgeStyle;rounded=0;orthogonalLoop=1;jettySize=auto;html=1;entryX=0;entryY=0.5;entryDx=0;entryDy=0;endArrow=none;endFill=0;curved=1;" parent="1" source="k8lfUsQyh5Yayv7SvFgP-11" target="k8lfUsQyh5Yayv7SvFgP-7" edge="1">
          <mxGeometry relative="1" as="geometry" />
        </mxCell>
        <mxCell id="k8lfUsQyh5Yayv7SvFgP-11" value="M&lt;br&gt;" style="ellipse;whiteSpace=wrap;html=1;aspect=fixed;fillColor=#0050ef;fontColor=#ffffff;strokeColor=#001DBC;" parent="1" vertex="1">
          <mxGeometry x="840" y="560" width="80" height="80" as="geometry" />
        </mxCell>
        <mxCell id="k8lfUsQyh5Yayv7SvFgP-40" style="edgeStyle=orthogonalEdgeStyle;rounded=0;orthogonalLoop=1;jettySize=auto;html=1;entryX=0;entryY=0.5;entryDx=0;entryDy=0;endArrow=none;endFill=0;curved=1;" parent="1" source="k8lfUsQyh5Yayv7SvFgP-12" target="k8lfUsQyh5Yayv7SvFgP-10" edge="1">
          <mxGeometry relative="1" as="geometry" />
        </mxCell>
        <mxCell id="k8lfUsQyh5Yayv7SvFgP-12" value="K" style="ellipse;whiteSpace=wrap;html=1;aspect=fixed;fillColor=#e51400;fontColor=#ffffff;strokeColor=#B20000;" parent="1" vertex="1">
          <mxGeometry x="860" y="360" width="80" height="80" as="geometry" />
        </mxCell>
        <mxCell id="k8lfUsQyh5Yayv7SvFgP-13" value="J" style="ellipse;whiteSpace=wrap;html=1;aspect=fixed;fillColor=#0050ef;fontColor=#ffffff;strokeColor=#001DBC;" parent="1" vertex="1">
          <mxGeometry x="920" y="200" width="80" height="80" as="geometry" />
        </mxCell>
        <mxCell id="k8lfUsQyh5Yayv7SvFgP-36" style="edgeStyle=orthogonalEdgeStyle;rounded=0;orthogonalLoop=1;jettySize=auto;html=1;endArrow=none;endFill=0;curved=1;entryX=0;entryY=0.5;entryDx=0;entryDy=0;" parent="1" source="k8lfUsQyh5Yayv7SvFgP-14" target="k8lfUsQyh5Yayv7SvFgP-13" edge="1">
          <mxGeometry relative="1" as="geometry" />
        </mxCell>
        <mxCell id="k8lfUsQyh5Yayv7SvFgP-37" style="edgeStyle=orthogonalEdgeStyle;rounded=0;orthogonalLoop=1;jettySize=auto;html=1;entryX=0;entryY=0.5;entryDx=0;entryDy=0;endArrow=none;endFill=0;curved=1;" parent="1" source="k8lfUsQyh5Yayv7SvFgP-14" target="k8lfUsQyh5Yayv7SvFgP-12" edge="1">
          <mxGeometry relative="1" as="geometry" />
        </mxCell>
        <mxCell id="k8lfUsQyh5Yayv7SvFgP-38" style="edgeStyle=orthogonalEdgeStyle;rounded=0;orthogonalLoop=1;jettySize=auto;html=1;entryX=0;entryY=0.5;entryDx=0;entryDy=0;endArrow=none;endFill=0;curved=1;" parent="1" source="k8lfUsQyh5Yayv7SvFgP-14" target="k8lfUsQyh5Yayv7SvFgP-11" edge="1">
          <mxGeometry relative="1" as="geometry" />
        </mxCell>
        <mxCell id="k8lfUsQyh5Yayv7SvFgP-14" value="I" style="ellipse;whiteSpace=wrap;html=1;aspect=fixed;fillColor=#e51400;fontColor=#ffffff;strokeColor=#B20000;" parent="1" vertex="1">
          <mxGeometry x="680" y="360" width="80" height="80" as="geometry" />
        </mxCell>
        <mxCell id="k8lfUsQyh5Yayv7SvFgP-35" value="" style="edgeStyle=orthogonalEdgeStyle;rounded=0;orthogonalLoop=1;jettySize=auto;html=1;endArrow=none;endFill=0;" parent="1" source="k8lfUsQyh5Yayv7SvFgP-15" target="k8lfUsQyh5Yayv7SvFgP-14" edge="1">
          <mxGeometry relative="1" as="geometry" />
        </mxCell>
        <mxCell id="k8lfUsQyh5Yayv7SvFgP-15" value="H" style="ellipse;whiteSpace=wrap;html=1;aspect=fixed;fillColor=#e51400;fontColor=#ffffff;strokeColor=#B20000;" parent="1" vertex="1">
          <mxGeometry x="560" y="360" width="80" height="80" as="geometry" />
        </mxCell>
        <mxCell id="k8lfUsQyh5Yayv7SvFgP-34" value="" style="edgeStyle=orthogonalEdgeStyle;rounded=0;orthogonalLoop=1;jettySize=auto;html=1;endArrow=none;endFill=0;" parent="1" source="k8lfUsQyh5Yayv7SvFgP-16" target="k8lfUsQyh5Yayv7SvFgP-15" edge="1">
          <mxGeometry relative="1" as="geometry" />
        </mxCell>
        <mxCell id="k8lfUsQyh5Yayv7SvFgP-16" value="G" style="ellipse;whiteSpace=wrap;html=1;aspect=fixed;fillColor=#e51400;fontColor=#ffffff;strokeColor=#B20000;" parent="1" vertex="1">
          <mxGeometry x="440" y="360" width="80" height="80" as="geometry" />
        </mxCell>
        <mxCell id="k8lfUsQyh5Yayv7SvFgP-30" style="edgeStyle=orthogonalEdgeStyle;rounded=0;orthogonalLoop=1;jettySize=auto;html=1;entryX=0;entryY=0.5;entryDx=0;entryDy=0;endArrow=none;endFill=0;curved=1;" parent="1" source="k8lfUsQyh5Yayv7SvFgP-17" target="k8lfUsQyh5Yayv7SvFgP-16" edge="1">
          <mxGeometry relative="1" as="geometry" />
        </mxCell>
        <mxCell id="k8lfUsQyh5Yayv7SvFgP-17" value="C" style="ellipse;whiteSpace=wrap;html=1;aspect=fixed;fillColor=#0050ef;fontColor=#ffffff;strokeColor=#001DBC;" parent="1" vertex="1">
          <mxGeometry x="280" y="110" width="80" height="80" as="geometry" />
        </mxCell>
        <mxCell id="k8lfUsQyh5Yayv7SvFgP-31" style="edgeStyle=orthogonalEdgeStyle;rounded=0;orthogonalLoop=1;jettySize=auto;html=1;endArrow=none;endFill=0;curved=1;" parent="1" source="k8lfUsQyh5Yayv7SvFgP-18" target="k8lfUsQyh5Yayv7SvFgP-16" edge="1">
          <mxGeometry relative="1" as="geometry" />
        </mxCell>
        <mxCell id="k8lfUsQyh5Yayv7SvFgP-18" value="D" style="ellipse;whiteSpace=wrap;html=1;aspect=fixed;fillColor=#0050ef;fontColor=#ffffff;strokeColor=#001DBC;" parent="1" vertex="1">
          <mxGeometry x="280" y="280" width="80" height="80" as="geometry" />
        </mxCell>
        <mxCell id="k8lfUsQyh5Yayv7SvFgP-32" style="edgeStyle=orthogonalEdgeStyle;rounded=0;orthogonalLoop=1;jettySize=auto;html=1;entryX=0;entryY=0.5;entryDx=0;entryDy=0;endArrow=none;endFill=0;curved=1;" parent="1" source="k8lfUsQyh5Yayv7SvFgP-19" target="k8lfUsQyh5Yayv7SvFgP-16" edge="1">
          <mxGeometry relative="1" as="geometry" />
        </mxCell>
        <mxCell id="k8lfUsQyh5Yayv7SvFgP-19" value="E" style="ellipse;whiteSpace=wrap;html=1;aspect=fixed;fillColor=#e51400;fontColor=#ffffff;strokeColor=#B20000;" parent="1" vertex="1">
          <mxGeometry x="285" y="480" width="80" height="80" as="geometry" />
        </mxCell>
        <mxCell id="k8lfUsQyh5Yayv7SvFgP-33" style="edgeStyle=orthogonalEdgeStyle;rounded=0;orthogonalLoop=1;jettySize=auto;html=1;entryX=0;entryY=0.5;entryDx=0;entryDy=0;endArrow=none;endFill=0;curved=1;" parent="1" source="k8lfUsQyh5Yayv7SvFgP-20" target="k8lfUsQyh5Yayv7SvFgP-16" edge="1">
          <mxGeometry relative="1" as="geometry" />
        </mxCell>
        <mxCell id="k8lfUsQyh5Yayv7SvFgP-20" value="F" style="ellipse;whiteSpace=wrap;html=1;aspect=fixed;fillColor=#e51400;fontColor=#ffffff;strokeColor=#B20000;" parent="1" vertex="1">
          <mxGeometry x="285" y="600" width="80" height="80" as="geometry" />
        </mxCell>
        <mxCell id="k8lfUsQyh5Yayv7SvFgP-26" style="edgeStyle=orthogonalEdgeStyle;rounded=0;orthogonalLoop=1;jettySize=auto;html=1;entryX=0;entryY=0.5;entryDx=0;entryDy=0;endArrow=none;endFill=0;curved=1;" parent="1" source="k8lfUsQyh5Yayv7SvFgP-21" target="k8lfUsQyh5Yayv7SvFgP-17" edge="1">
          <mxGeometry relative="1" as="geometry" />
        </mxCell>
        <mxCell id="k8lfUsQyh5Yayv7SvFgP-27" style="edgeStyle=orthogonalEdgeStyle;rounded=0;orthogonalLoop=1;jettySize=auto;html=1;entryX=0;entryY=0.5;entryDx=0;entryDy=0;endArrow=none;endFill=0;curved=1;" parent="1" source="k8lfUsQyh5Yayv7SvFgP-21" target="k8lfUsQyh5Yayv7SvFgP-18" edge="1">
          <mxGeometry relative="1" as="geometry" />
        </mxCell>
        <mxCell id="k8lfUsQyh5Yayv7SvFgP-28" style="edgeStyle=orthogonalEdgeStyle;rounded=0;orthogonalLoop=1;jettySize=auto;html=1;entryX=0;entryY=0.5;entryDx=0;entryDy=0;endArrow=none;endFill=0;curved=1;" parent="1" source="k8lfUsQyh5Yayv7SvFgP-21" target="k8lfUsQyh5Yayv7SvFgP-19" edge="1">
          <mxGeometry relative="1" as="geometry" />
        </mxCell>
        <mxCell id="k8lfUsQyh5Yayv7SvFgP-29" style="edgeStyle=orthogonalEdgeStyle;rounded=0;orthogonalLoop=1;jettySize=auto;html=1;entryX=0;entryY=0.5;entryDx=0;entryDy=0;endArrow=none;endFill=0;curved=1;" parent="1" source="k8lfUsQyh5Yayv7SvFgP-21" target="k8lfUsQyh5Yayv7SvFgP-20" edge="1">
          <mxGeometry relative="1" as="geometry" />
        </mxCell>
        <mxCell id="k8lfUsQyh5Yayv7SvFgP-21" value="B" style="ellipse;whiteSpace=wrap;html=1;aspect=fixed;fillColor=#e51400;fontColor=#ffffff;" parent="1" vertex="1">
          <mxGeometry x="120" y="360" width="80" height="80" as="geometry" />
        </mxCell>
        <mxCell id="k8lfUsQyh5Yayv7SvFgP-25" value="" style="edgeStyle=orthogonalEdgeStyle;rounded=0;orthogonalLoop=1;jettySize=auto;html=1;endArrow=none;endFill=0;" parent="1" source="k8lfUsQyh5Yayv7SvFgP-22" target="k8lfUsQyh5Yayv7SvFgP-21" edge="1">
          <mxGeometry relative="1" as="geometry" />
        </mxCell>
        <mxCell id="k8lfUsQyh5Yayv7SvFgP-22" value="A" style="ellipse;whiteSpace=wrap;html=1;aspect=fixed;fillColor=#e51400;fontColor=#ffffff;strokeColor=#B20000;" parent="1" vertex="1">
          <mxGeometry y="360" width="80" height="80" as="geometry" />
        </mxCell>
        <mxCell id="k8lfUsQyh5Yayv7SvFgP-55" value="" style="edgeStyle=orthogonalEdgeStyle;rounded=0;orthogonalLoop=1;jettySize=auto;html=1;endArrow=none;endFill=0;" parent="1" source="k8lfUsQyh5Yayv7SvFgP-23" target="k8lfUsQyh5Yayv7SvFgP-22" edge="1">
          <mxGeometry relative="1" as="geometry" />
        </mxCell>
        <mxCell id="k8lfUsQyh5Yayv7SvFgP-23" value="INICIO" style="ellipse;whiteSpace=wrap;html=1;aspect=fixed;fillColor=#e51400;fontColor=#ffffff;strokeColor=#B20000;" parent="1" vertex="1">
          <mxGeometry x="-120" y="360" width="80" height="80" as="geometry" />
        </mxCell>
        <mxCell id="k8lfUsQyh5Yayv7SvFgP-24" value="FIN" style="ellipse;whiteSpace=wrap;html=1;aspect=fixed;fillColor=#e51400;fontColor=#ffffff;strokeColor=#B20000;" parent="1" vertex="1">
          <mxGeometry x="1720" y="880" width="80" height="80" as="geometry" />
        </mxCell>
        <mxCell id="k8lfUsQyh5Yayv7SvFgP-78" value="" style="group" parent="1" vertex="1" connectable="0">
          <mxGeometry x="-120" y="280" width="90" height="74" as="geometry" />
        </mxCell>
        <mxCell id="k8lfUsQyh5Yayv7SvFgP-74" value="0" style="connectable=0;recursiveResize=0;strokeColor=inherit;fillColor=none;align=center;whiteSpace=wrap;html=1;" parent="k8lfUsQyh5Yayv7SvFgP-78" vertex="1">
          <mxGeometry width="45" height="37" as="geometry">
            <mxRectangle width="60" height="47" as="alternateBounds" />
          </mxGeometry>
        </mxCell>
        <mxCell id="k8lfUsQyh5Yayv7SvFgP-75" value="0" style="connectable=0;recursiveResize=0;strokeColor=inherit;fillColor=none;align=center;whiteSpace=wrap;html=1;" parent="k8lfUsQyh5Yayv7SvFgP-78" vertex="1">
          <mxGeometry x="45" width="45" height="37" as="geometry">
            <mxRectangle width="60" height="47" as="alternateBounds" />
          </mxGeometry>
        </mxCell>
        <mxCell id="k8lfUsQyh5Yayv7SvFgP-76" value="0" style="connectable=0;recursiveResize=0;strokeColor=inherit;fillColor=none;align=center;whiteSpace=wrap;html=1;" parent="k8lfUsQyh5Yayv7SvFgP-78" vertex="1">
          <mxGeometry y="37" width="45" height="37" as="geometry">
            <mxRectangle width="60" height="47" as="alternateBounds" />
          </mxGeometry>
        </mxCell>
        <mxCell id="k8lfUsQyh5Yayv7SvFgP-77" value="0" style="connectable=0;recursiveResize=0;strokeColor=inherit;fillColor=none;align=center;whiteSpace=wrap;html=1;" parent="k8lfUsQyh5Yayv7SvFgP-78" vertex="1">
          <mxGeometry x="45" y="37" width="45" height="37" as="geometry">
            <mxRectangle width="60" height="47" as="alternateBounds" />
          </mxGeometry>
        </mxCell>
        <mxCell id="k8lfUsQyh5Yayv7SvFgP-89" value="" style="group" parent="1" vertex="1" connectable="0">
          <mxGeometry y="280" width="90" height="74" as="geometry" />
        </mxCell>
        <mxCell id="k8lfUsQyh5Yayv7SvFgP-90" value="0" style="connectable=0;recursiveResize=0;strokeColor=inherit;fillColor=none;align=center;whiteSpace=wrap;html=1;" parent="k8lfUsQyh5Yayv7SvFgP-89" vertex="1">
          <mxGeometry width="45" height="37" as="geometry">
            <mxRectangle width="60" height="47" as="alternateBounds" />
          </mxGeometry>
        </mxCell>
        <mxCell id="k8lfUsQyh5Yayv7SvFgP-91" value="1" style="connectable=0;recursiveResize=0;strokeColor=inherit;fillColor=none;align=center;whiteSpace=wrap;html=1;" parent="k8lfUsQyh5Yayv7SvFgP-89" vertex="1">
          <mxGeometry x="45" width="45" height="37" as="geometry">
            <mxRectangle width="60" height="47" as="alternateBounds" />
          </mxGeometry>
        </mxCell>
        <mxCell id="k8lfUsQyh5Yayv7SvFgP-92" value="0" style="connectable=0;recursiveResize=0;strokeColor=inherit;fillColor=none;align=center;whiteSpace=wrap;html=1;" parent="k8lfUsQyh5Yayv7SvFgP-89" vertex="1">
          <mxGeometry y="37" width="45" height="37" as="geometry">
            <mxRectangle width="60" height="47" as="alternateBounds" />
          </mxGeometry>
        </mxCell>
        <mxCell id="k8lfUsQyh5Yayv7SvFgP-93" value="1" style="connectable=0;recursiveResize=0;strokeColor=inherit;fillColor=none;align=center;whiteSpace=wrap;html=1;" parent="k8lfUsQyh5Yayv7SvFgP-89" vertex="1">
          <mxGeometry x="45" y="37" width="45" height="37" as="geometry">
            <mxRectangle width="60" height="47" as="alternateBounds" />
          </mxGeometry>
        </mxCell>
        <mxCell id="k8lfUsQyh5Yayv7SvFgP-94" value="" style="group" parent="1" vertex="1" connectable="0">
          <mxGeometry x="120" y="280" width="90" height="74" as="geometry" />
        </mxCell>
        <mxCell id="k8lfUsQyh5Yayv7SvFgP-95" value="1" style="connectable=0;recursiveResize=0;strokeColor=inherit;fillColor=none;align=center;whiteSpace=wrap;html=1;" parent="k8lfUsQyh5Yayv7SvFgP-94" vertex="1">
          <mxGeometry width="45" height="37" as="geometry">
            <mxRectangle width="60" height="47" as="alternateBounds" />
          </mxGeometry>
        </mxCell>
        <mxCell id="k8lfUsQyh5Yayv7SvFgP-96" value="1,5" style="connectable=0;recursiveResize=0;strokeColor=inherit;fillColor=none;align=center;whiteSpace=wrap;html=1;" parent="k8lfUsQyh5Yayv7SvFgP-94" vertex="1">
          <mxGeometry x="45" width="45" height="37" as="geometry">
            <mxRectangle width="60" height="47" as="alternateBounds" />
          </mxGeometry>
        </mxCell>
        <mxCell id="k8lfUsQyh5Yayv7SvFgP-97" value="1" style="connectable=0;recursiveResize=0;strokeColor=inherit;fillColor=none;align=center;whiteSpace=wrap;html=1;" parent="k8lfUsQyh5Yayv7SvFgP-94" vertex="1">
          <mxGeometry y="37" width="45" height="37" as="geometry">
            <mxRectangle width="60" height="47" as="alternateBounds" />
          </mxGeometry>
        </mxCell>
        <mxCell id="k8lfUsQyh5Yayv7SvFgP-98" value="1,5" style="connectable=0;recursiveResize=0;strokeColor=inherit;fillColor=none;align=center;whiteSpace=wrap;html=1;" parent="k8lfUsQyh5Yayv7SvFgP-94" vertex="1">
          <mxGeometry x="50" y="40" width="40" height="34" as="geometry">
            <mxRectangle width="60" height="47" as="alternateBounds" />
          </mxGeometry>
        </mxCell>
        <mxCell id="k8lfUsQyh5Yayv7SvFgP-99" value="" style="group" parent="1" vertex="1" connectable="0">
          <mxGeometry x="280" y="30" width="90" height="74" as="geometry" />
        </mxCell>
        <mxCell id="k8lfUsQyh5Yayv7SvFgP-100" value="1,5" style="connectable=0;recursiveResize=0;strokeColor=inherit;fillColor=none;align=center;whiteSpace=wrap;html=1;" parent="k8lfUsQyh5Yayv7SvFgP-99" vertex="1">
          <mxGeometry width="45" height="37" as="geometry">
            <mxRectangle width="60" height="47" as="alternateBounds" />
          </mxGeometry>
        </mxCell>
        <mxCell id="k8lfUsQyh5Yayv7SvFgP-101" value="1,7" style="connectable=0;recursiveResize=0;strokeColor=inherit;fillColor=none;align=center;whiteSpace=wrap;html=1;" parent="k8lfUsQyh5Yayv7SvFgP-99" vertex="1">
          <mxGeometry x="45" width="45" height="37" as="geometry">
            <mxRectangle width="60" height="47" as="alternateBounds" />
          </mxGeometry>
        </mxCell>
        <mxCell id="k8lfUsQyh5Yayv7SvFgP-102" value="2,3" style="connectable=0;recursiveResize=0;strokeColor=inherit;fillColor=none;align=center;whiteSpace=wrap;html=1;" parent="k8lfUsQyh5Yayv7SvFgP-99" vertex="1">
          <mxGeometry y="37" width="45" height="37" as="geometry">
            <mxRectangle width="60" height="47" as="alternateBounds" />
          </mxGeometry>
        </mxCell>
        <mxCell id="k8lfUsQyh5Yayv7SvFgP-103" value="2,5" style="connectable=0;recursiveResize=0;strokeColor=inherit;fillColor=none;align=center;whiteSpace=wrap;html=1;" parent="k8lfUsQyh5Yayv7SvFgP-99" vertex="1">
          <mxGeometry x="45" y="37" width="45" height="37" as="geometry">
            <mxRectangle width="60" height="47" as="alternateBounds" />
          </mxGeometry>
        </mxCell>
        <mxCell id="k8lfUsQyh5Yayv7SvFgP-114" value="" style="group" parent="1" vertex="1" connectable="0">
          <mxGeometry x="280" y="200" width="90" height="74" as="geometry" />
        </mxCell>
        <mxCell id="k8lfUsQyh5Yayv7SvFgP-115" value="1,5" style="connectable=0;recursiveResize=0;strokeColor=inherit;fillColor=none;align=center;whiteSpace=wrap;html=1;" parent="k8lfUsQyh5Yayv7SvFgP-114" vertex="1">
          <mxGeometry width="45" height="37" as="geometry">
            <mxRectangle width="60" height="47" as="alternateBounds" />
          </mxGeometry>
        </mxCell>
        <mxCell id="k8lfUsQyh5Yayv7SvFgP-116" value="1,7" style="connectable=0;recursiveResize=0;strokeColor=inherit;fillColor=none;align=center;whiteSpace=wrap;html=1;" parent="k8lfUsQyh5Yayv7SvFgP-114" vertex="1">
          <mxGeometry x="45" width="45" height="37" as="geometry">
            <mxRectangle width="60" height="47" as="alternateBounds" />
          </mxGeometry>
        </mxCell>
        <mxCell id="k8lfUsQyh5Yayv7SvFgP-117" value="2,3" style="connectable=0;recursiveResize=0;strokeColor=inherit;fillColor=none;align=center;whiteSpace=wrap;html=1;" parent="k8lfUsQyh5Yayv7SvFgP-114" vertex="1">
          <mxGeometry y="37" width="45" height="37" as="geometry">
            <mxRectangle width="60" height="47" as="alternateBounds" />
          </mxGeometry>
        </mxCell>
        <mxCell id="k8lfUsQyh5Yayv7SvFgP-118" value="2,5" style="connectable=0;recursiveResize=0;strokeColor=inherit;fillColor=none;align=center;whiteSpace=wrap;html=1;" parent="k8lfUsQyh5Yayv7SvFgP-114" vertex="1">
          <mxGeometry x="45" y="37" width="45" height="37" as="geometry">
            <mxRectangle width="60" height="47" as="alternateBounds" />
          </mxGeometry>
        </mxCell>
        <mxCell id="-noM--TvreRfiqz0K5aq-2" value="H=0,8" style="text;html=1;align=center;verticalAlign=middle;resizable=0;points=[];autosize=1;strokeColor=none;fillColor=none;" vertex="1" parent="k8lfUsQyh5Yayv7SvFgP-114">
          <mxGeometry x="-40" y="22" width="60" height="30" as="geometry" />
        </mxCell>
        <mxCell id="k8lfUsQyh5Yayv7SvFgP-119" value="" style="group" parent="1" vertex="1" connectable="0">
          <mxGeometry x="280" y="690" width="90" height="74" as="geometry" />
        </mxCell>
        <mxCell id="k8lfUsQyh5Yayv7SvFgP-120" value="1,5" style="connectable=0;recursiveResize=0;strokeColor=inherit;fillColor=none;align=center;whiteSpace=wrap;html=1;" parent="k8lfUsQyh5Yayv7SvFgP-119" vertex="1">
          <mxGeometry width="45" height="37" as="geometry">
            <mxRectangle width="60" height="47" as="alternateBounds" />
          </mxGeometry>
        </mxCell>
        <mxCell id="k8lfUsQyh5Yayv7SvFgP-121" value="2,5" style="connectable=0;recursiveResize=0;strokeColor=inherit;fillColor=none;align=center;whiteSpace=wrap;html=1;" parent="k8lfUsQyh5Yayv7SvFgP-119" vertex="1">
          <mxGeometry x="45" width="45" height="37" as="geometry">
            <mxRectangle width="60" height="47" as="alternateBounds" />
          </mxGeometry>
        </mxCell>
        <mxCell id="k8lfUsQyh5Yayv7SvFgP-122" value="1,5" style="connectable=0;recursiveResize=0;strokeColor=inherit;fillColor=none;align=center;whiteSpace=wrap;html=1;" parent="k8lfUsQyh5Yayv7SvFgP-119" vertex="1">
          <mxGeometry y="37" width="45" height="37" as="geometry">
            <mxRectangle width="60" height="47" as="alternateBounds" />
          </mxGeometry>
        </mxCell>
        <mxCell id="k8lfUsQyh5Yayv7SvFgP-123" value="2,5" style="connectable=0;recursiveResize=0;strokeColor=inherit;fillColor=none;align=center;whiteSpace=wrap;html=1;" parent="k8lfUsQyh5Yayv7SvFgP-119" vertex="1">
          <mxGeometry x="45" y="37" width="45" height="37" as="geometry">
            <mxRectangle width="60" height="47" as="alternateBounds" />
          </mxGeometry>
        </mxCell>
        <mxCell id="k8lfUsQyh5Yayv7SvFgP-124" value="" style="group" parent="1" vertex="1" connectable="0">
          <mxGeometry x="280" y="400" width="90" height="74" as="geometry" />
        </mxCell>
        <mxCell id="k8lfUsQyh5Yayv7SvFgP-125" value="1,5" style="connectable=0;recursiveResize=0;strokeColor=inherit;fillColor=none;align=center;whiteSpace=wrap;html=1;" parent="k8lfUsQyh5Yayv7SvFgP-124" vertex="1">
          <mxGeometry width="45" height="37" as="geometry">
            <mxRectangle width="60" height="47" as="alternateBounds" />
          </mxGeometry>
        </mxCell>
        <mxCell id="k8lfUsQyh5Yayv7SvFgP-126" value="2,5" style="connectable=0;recursiveResize=0;strokeColor=inherit;fillColor=none;align=center;whiteSpace=wrap;html=1;" parent="k8lfUsQyh5Yayv7SvFgP-124" vertex="1">
          <mxGeometry x="45" width="45" height="37" as="geometry">
            <mxRectangle width="60" height="47" as="alternateBounds" />
          </mxGeometry>
        </mxCell>
        <mxCell id="k8lfUsQyh5Yayv7SvFgP-127" value="1,5" style="connectable=0;recursiveResize=0;strokeColor=inherit;fillColor=none;align=center;whiteSpace=wrap;html=1;" parent="k8lfUsQyh5Yayv7SvFgP-124" vertex="1">
          <mxGeometry y="37" width="45" height="37" as="geometry">
            <mxRectangle width="60" height="47" as="alternateBounds" />
          </mxGeometry>
        </mxCell>
        <mxCell id="k8lfUsQyh5Yayv7SvFgP-128" value="2,5" style="connectable=0;recursiveResize=0;strokeColor=inherit;fillColor=none;align=center;whiteSpace=wrap;html=1;" parent="k8lfUsQyh5Yayv7SvFgP-124" vertex="1">
          <mxGeometry x="45" y="37" width="45" height="37" as="geometry">
            <mxRectangle width="60" height="47" as="alternateBounds" />
          </mxGeometry>
        </mxCell>
        <mxCell id="k8lfUsQyh5Yayv7SvFgP-129" value="" style="group" parent="1" vertex="1" connectable="0">
          <mxGeometry x="440" y="280" width="90" height="74" as="geometry" />
        </mxCell>
        <mxCell id="k8lfUsQyh5Yayv7SvFgP-130" value="2,5" style="connectable=0;recursiveResize=0;strokeColor=inherit;fillColor=none;align=center;whiteSpace=wrap;html=1;" parent="k8lfUsQyh5Yayv7SvFgP-129" vertex="1">
          <mxGeometry width="45" height="37" as="geometry">
            <mxRectangle width="60" height="47" as="alternateBounds" />
          </mxGeometry>
        </mxCell>
        <mxCell id="k8lfUsQyh5Yayv7SvFgP-131" value="3" style="connectable=0;recursiveResize=0;strokeColor=inherit;fillColor=none;align=center;whiteSpace=wrap;html=1;" parent="k8lfUsQyh5Yayv7SvFgP-129" vertex="1">
          <mxGeometry x="45" width="45" height="37" as="geometry">
            <mxRectangle width="60" height="47" as="alternateBounds" />
          </mxGeometry>
        </mxCell>
        <mxCell id="k8lfUsQyh5Yayv7SvFgP-132" value="2,5" style="connectable=0;recursiveResize=0;strokeColor=inherit;fillColor=none;align=center;whiteSpace=wrap;html=1;" parent="k8lfUsQyh5Yayv7SvFgP-129" vertex="1">
          <mxGeometry y="37" width="45" height="37" as="geometry">
            <mxRectangle width="60" height="47" as="alternateBounds" />
          </mxGeometry>
        </mxCell>
        <mxCell id="k8lfUsQyh5Yayv7SvFgP-133" value="3" style="connectable=0;recursiveResize=0;strokeColor=inherit;fillColor=none;align=center;whiteSpace=wrap;html=1;" parent="k8lfUsQyh5Yayv7SvFgP-129" vertex="1">
          <mxGeometry x="45" y="37" width="45" height="37" as="geometry">
            <mxRectangle width="60" height="47" as="alternateBounds" />
          </mxGeometry>
        </mxCell>
        <mxCell id="k8lfUsQyh5Yayv7SvFgP-134" value="" style="group" parent="1" vertex="1" connectable="0">
          <mxGeometry x="560" y="280" width="90" height="74" as="geometry" />
        </mxCell>
        <mxCell id="k8lfUsQyh5Yayv7SvFgP-135" value="3" style="connectable=0;recursiveResize=0;strokeColor=inherit;fillColor=none;align=center;whiteSpace=wrap;html=1;" parent="k8lfUsQyh5Yayv7SvFgP-134" vertex="1">
          <mxGeometry width="45" height="37" as="geometry">
            <mxRectangle width="60" height="47" as="alternateBounds" />
          </mxGeometry>
        </mxCell>
        <mxCell id="k8lfUsQyh5Yayv7SvFgP-136" value="3,8" style="connectable=0;recursiveResize=0;strokeColor=inherit;fillColor=none;align=center;whiteSpace=wrap;html=1;" parent="k8lfUsQyh5Yayv7SvFgP-134" vertex="1">
          <mxGeometry x="45" width="45" height="37" as="geometry">
            <mxRectangle width="60" height="47" as="alternateBounds" />
          </mxGeometry>
        </mxCell>
        <mxCell id="k8lfUsQyh5Yayv7SvFgP-137" value="3" style="connectable=0;recursiveResize=0;strokeColor=inherit;fillColor=none;align=center;whiteSpace=wrap;html=1;" parent="k8lfUsQyh5Yayv7SvFgP-134" vertex="1">
          <mxGeometry y="37" width="45" height="37" as="geometry">
            <mxRectangle width="60" height="47" as="alternateBounds" />
          </mxGeometry>
        </mxCell>
        <mxCell id="k8lfUsQyh5Yayv7SvFgP-138" value="3,8" style="connectable=0;recursiveResize=0;strokeColor=inherit;fillColor=none;align=center;whiteSpace=wrap;html=1;" parent="k8lfUsQyh5Yayv7SvFgP-134" vertex="1">
          <mxGeometry x="45" y="37" width="45" height="37" as="geometry">
            <mxRectangle width="60" height="47" as="alternateBounds" />
          </mxGeometry>
        </mxCell>
        <mxCell id="k8lfUsQyh5Yayv7SvFgP-139" value="" style="group" parent="1" vertex="1" connectable="0">
          <mxGeometry x="680" y="280" width="90" height="74" as="geometry" />
        </mxCell>
        <mxCell id="k8lfUsQyh5Yayv7SvFgP-140" value="3,8" style="connectable=0;recursiveResize=0;strokeColor=inherit;fillColor=none;align=center;whiteSpace=wrap;html=1;" parent="k8lfUsQyh5Yayv7SvFgP-139" vertex="1">
          <mxGeometry width="45" height="37" as="geometry">
            <mxRectangle width="60" height="47" as="alternateBounds" />
          </mxGeometry>
        </mxCell>
        <mxCell id="k8lfUsQyh5Yayv7SvFgP-141" value="4,8" style="connectable=0;recursiveResize=0;strokeColor=inherit;fillColor=none;align=center;whiteSpace=wrap;html=1;" parent="k8lfUsQyh5Yayv7SvFgP-139" vertex="1">
          <mxGeometry x="45" width="45" height="37" as="geometry">
            <mxRectangle width="60" height="47" as="alternateBounds" />
          </mxGeometry>
        </mxCell>
        <mxCell id="k8lfUsQyh5Yayv7SvFgP-142" value="3,8" style="connectable=0;recursiveResize=0;strokeColor=inherit;fillColor=none;align=center;whiteSpace=wrap;html=1;" parent="k8lfUsQyh5Yayv7SvFgP-139" vertex="1">
          <mxGeometry y="37" width="45" height="37" as="geometry">
            <mxRectangle width="60" height="47" as="alternateBounds" />
          </mxGeometry>
        </mxCell>
        <mxCell id="k8lfUsQyh5Yayv7SvFgP-143" value="4,8" style="connectable=0;recursiveResize=0;strokeColor=inherit;fillColor=none;align=center;whiteSpace=wrap;html=1;" parent="k8lfUsQyh5Yayv7SvFgP-139" vertex="1">
          <mxGeometry x="50" y="40" width="40" height="34" as="geometry">
            <mxRectangle width="60" height="47" as="alternateBounds" />
          </mxGeometry>
        </mxCell>
        <mxCell id="k8lfUsQyh5Yayv7SvFgP-149" value="" style="group" parent="1" vertex="1" connectable="0">
          <mxGeometry x="920" y="120" width="90" height="74" as="geometry" />
        </mxCell>
        <mxCell id="k8lfUsQyh5Yayv7SvFgP-150" value="4,8" style="connectable=0;recursiveResize=0;strokeColor=inherit;fillColor=none;align=center;whiteSpace=wrap;html=1;" parent="k8lfUsQyh5Yayv7SvFgP-149" vertex="1">
          <mxGeometry width="45" height="37" as="geometry">
            <mxRectangle width="60" height="47" as="alternateBounds" />
          </mxGeometry>
        </mxCell>
        <mxCell id="k8lfUsQyh5Yayv7SvFgP-151" value="6,8" style="connectable=0;recursiveResize=0;strokeColor=inherit;fillColor=none;align=center;whiteSpace=wrap;html=1;" parent="k8lfUsQyh5Yayv7SvFgP-149" vertex="1">
          <mxGeometry x="45" width="45" height="37" as="geometry">
            <mxRectangle width="60" height="47" as="alternateBounds" />
          </mxGeometry>
        </mxCell>
        <mxCell id="k8lfUsQyh5Yayv7SvFgP-152" value="6,8" style="connectable=0;recursiveResize=0;strokeColor=inherit;fillColor=none;align=center;whiteSpace=wrap;html=1;" parent="k8lfUsQyh5Yayv7SvFgP-149" vertex="1">
          <mxGeometry y="37" width="45" height="37" as="geometry">
            <mxRectangle width="60" height="47" as="alternateBounds" />
          </mxGeometry>
        </mxCell>
        <mxCell id="k8lfUsQyh5Yayv7SvFgP-153" value="8,8" style="connectable=0;recursiveResize=0;strokeColor=inherit;fillColor=none;align=center;whiteSpace=wrap;html=1;" parent="k8lfUsQyh5Yayv7SvFgP-149" vertex="1">
          <mxGeometry x="45" y="37" width="45" height="37" as="geometry">
            <mxRectangle width="60" height="47" as="alternateBounds" />
          </mxGeometry>
        </mxCell>
        <mxCell id="k8lfUsQyh5Yayv7SvFgP-154" value="" style="group" parent="1" vertex="1" connectable="0">
          <mxGeometry x="860" y="280" width="90" height="74" as="geometry" />
        </mxCell>
        <mxCell id="k8lfUsQyh5Yayv7SvFgP-155" value="4,8" style="connectable=0;recursiveResize=0;strokeColor=inherit;fillColor=none;align=center;whiteSpace=wrap;html=1;" parent="k8lfUsQyh5Yayv7SvFgP-154" vertex="1">
          <mxGeometry width="45" height="37" as="geometry">
            <mxRectangle width="60" height="47" as="alternateBounds" />
          </mxGeometry>
        </mxCell>
        <mxCell id="k8lfUsQyh5Yayv7SvFgP-156" value="6,8" style="connectable=0;recursiveResize=0;strokeColor=inherit;fillColor=none;align=center;whiteSpace=wrap;html=1;" parent="k8lfUsQyh5Yayv7SvFgP-154" vertex="1">
          <mxGeometry x="45" width="45" height="37" as="geometry">
            <mxRectangle width="60" height="47" as="alternateBounds" />
          </mxGeometry>
        </mxCell>
        <mxCell id="k8lfUsQyh5Yayv7SvFgP-157" value="4,8" style="connectable=0;recursiveResize=0;strokeColor=inherit;fillColor=none;align=center;whiteSpace=wrap;html=1;" parent="k8lfUsQyh5Yayv7SvFgP-154" vertex="1">
          <mxGeometry y="37" width="45" height="37" as="geometry">
            <mxRectangle width="60" height="47" as="alternateBounds" />
          </mxGeometry>
        </mxCell>
        <mxCell id="k8lfUsQyh5Yayv7SvFgP-158" value="6,8" style="connectable=0;recursiveResize=0;strokeColor=inherit;fillColor=none;align=center;whiteSpace=wrap;html=1;" parent="k8lfUsQyh5Yayv7SvFgP-154" vertex="1">
          <mxGeometry x="45" y="37" width="45" height="37" as="geometry">
            <mxRectangle width="60" height="47" as="alternateBounds" />
          </mxGeometry>
        </mxCell>
        <mxCell id="k8lfUsQyh5Yayv7SvFgP-159" value="" style="group" parent="1" vertex="1" connectable="0">
          <mxGeometry x="840" y="650" width="90" height="74" as="geometry" />
        </mxCell>
        <mxCell id="k8lfUsQyh5Yayv7SvFgP-160" value="4,8" style="connectable=0;recursiveResize=0;strokeColor=inherit;fillColor=none;align=center;whiteSpace=wrap;html=1;" parent="k8lfUsQyh5Yayv7SvFgP-159" vertex="1">
          <mxGeometry width="45" height="37" as="geometry">
            <mxRectangle width="60" height="47" as="alternateBounds" />
          </mxGeometry>
        </mxCell>
        <mxCell id="k8lfUsQyh5Yayv7SvFgP-161" value="5,8" style="connectable=0;recursiveResize=0;strokeColor=inherit;fillColor=none;align=center;whiteSpace=wrap;html=1;" parent="k8lfUsQyh5Yayv7SvFgP-159" vertex="1">
          <mxGeometry x="45" width="45" height="37" as="geometry">
            <mxRectangle width="60" height="47" as="alternateBounds" />
          </mxGeometry>
        </mxCell>
        <mxCell id="k8lfUsQyh5Yayv7SvFgP-162" value="5,8" style="connectable=0;recursiveResize=0;strokeColor=inherit;fillColor=none;align=center;whiteSpace=wrap;html=1;" parent="k8lfUsQyh5Yayv7SvFgP-159" vertex="1">
          <mxGeometry y="37" width="45" height="37" as="geometry">
            <mxRectangle width="60" height="47" as="alternateBounds" />
          </mxGeometry>
        </mxCell>
        <mxCell id="k8lfUsQyh5Yayv7SvFgP-163" value="6,8" style="connectable=0;recursiveResize=0;strokeColor=inherit;fillColor=none;align=center;whiteSpace=wrap;html=1;" parent="k8lfUsQyh5Yayv7SvFgP-159" vertex="1">
          <mxGeometry x="45" y="37" width="45" height="37" as="geometry">
            <mxRectangle width="60" height="47" as="alternateBounds" />
          </mxGeometry>
        </mxCell>
        <mxCell id="k8lfUsQyh5Yayv7SvFgP-164" value="" style="group" parent="1" vertex="1" connectable="0">
          <mxGeometry x="1000" y="866" width="90" height="74" as="geometry" />
        </mxCell>
        <mxCell id="k8lfUsQyh5Yayv7SvFgP-165" value="5,8" style="connectable=0;recursiveResize=0;strokeColor=inherit;fillColor=none;align=center;whiteSpace=wrap;html=1;" parent="k8lfUsQyh5Yayv7SvFgP-164" vertex="1">
          <mxGeometry width="45" height="37" as="geometry">
            <mxRectangle width="60" height="47" as="alternateBounds" />
          </mxGeometry>
        </mxCell>
        <mxCell id="k8lfUsQyh5Yayv7SvFgP-166" value="7,8" style="connectable=0;recursiveResize=0;strokeColor=inherit;fillColor=none;align=center;whiteSpace=wrap;html=1;" parent="k8lfUsQyh5Yayv7SvFgP-164" vertex="1">
          <mxGeometry x="45" width="45" height="37" as="geometry">
            <mxRectangle width="60" height="47" as="alternateBounds" />
          </mxGeometry>
        </mxCell>
        <mxCell id="k8lfUsQyh5Yayv7SvFgP-167" value="6,8&lt;br&gt;" style="connectable=0;recursiveResize=0;strokeColor=inherit;fillColor=none;align=center;whiteSpace=wrap;html=1;" parent="k8lfUsQyh5Yayv7SvFgP-164" vertex="1">
          <mxGeometry y="37" width="45" height="37" as="geometry">
            <mxRectangle width="60" height="47" as="alternateBounds" />
          </mxGeometry>
        </mxCell>
        <mxCell id="k8lfUsQyh5Yayv7SvFgP-168" value="8,8" style="connectable=0;recursiveResize=0;strokeColor=inherit;fillColor=none;align=center;whiteSpace=wrap;html=1;" parent="k8lfUsQyh5Yayv7SvFgP-164" vertex="1">
          <mxGeometry x="45" y="37" width="45" height="37" as="geometry">
            <mxRectangle width="60" height="47" as="alternateBounds" />
          </mxGeometry>
        </mxCell>
        <mxCell id="k8lfUsQyh5Yayv7SvFgP-169" value="" style="group" parent="1" vertex="1" connectable="0">
          <mxGeometry x="1160" y="280" width="90" height="74" as="geometry" />
        </mxCell>
        <mxCell id="k8lfUsQyh5Yayv7SvFgP-170" value="6,8" style="connectable=0;recursiveResize=0;strokeColor=inherit;fillColor=none;align=center;whiteSpace=wrap;html=1;" parent="k8lfUsQyh5Yayv7SvFgP-169" vertex="1">
          <mxGeometry width="45" height="37" as="geometry">
            <mxRectangle width="60" height="47" as="alternateBounds" />
          </mxGeometry>
        </mxCell>
        <mxCell id="k8lfUsQyh5Yayv7SvFgP-171" value="8,8" style="connectable=0;recursiveResize=0;strokeColor=inherit;fillColor=none;align=center;whiteSpace=wrap;html=1;" parent="k8lfUsQyh5Yayv7SvFgP-169" vertex="1">
          <mxGeometry x="45" width="45" height="37" as="geometry">
            <mxRectangle width="60" height="47" as="alternateBounds" />
          </mxGeometry>
        </mxCell>
        <mxCell id="k8lfUsQyh5Yayv7SvFgP-172" value="6,8" style="connectable=0;recursiveResize=0;strokeColor=inherit;fillColor=none;align=center;whiteSpace=wrap;html=1;" parent="k8lfUsQyh5Yayv7SvFgP-169" vertex="1">
          <mxGeometry y="37" width="45" height="37" as="geometry">
            <mxRectangle width="60" height="47" as="alternateBounds" />
          </mxGeometry>
        </mxCell>
        <mxCell id="k8lfUsQyh5Yayv7SvFgP-173" value="8,8" style="connectable=0;recursiveResize=0;strokeColor=inherit;fillColor=none;align=center;whiteSpace=wrap;html=1;" parent="k8lfUsQyh5Yayv7SvFgP-169" vertex="1">
          <mxGeometry x="45" y="37" width="45" height="37" as="geometry">
            <mxRectangle width="60" height="47" as="alternateBounds" />
          </mxGeometry>
        </mxCell>
        <mxCell id="k8lfUsQyh5Yayv7SvFgP-174" value="" style="group" parent="1" vertex="1" connectable="0">
          <mxGeometry x="960" y="730" width="90" height="74" as="geometry" />
        </mxCell>
        <mxCell id="k8lfUsQyh5Yayv7SvFgP-175" value="5,8" style="connectable=0;recursiveResize=0;strokeColor=inherit;fillColor=none;align=center;whiteSpace=wrap;html=1;" parent="k8lfUsQyh5Yayv7SvFgP-174" vertex="1">
          <mxGeometry width="45" height="37" as="geometry">
            <mxRectangle width="60" height="47" as="alternateBounds" />
          </mxGeometry>
        </mxCell>
        <mxCell id="k8lfUsQyh5Yayv7SvFgP-176" value="6,8" style="connectable=0;recursiveResize=0;strokeColor=inherit;fillColor=none;align=center;whiteSpace=wrap;html=1;" parent="k8lfUsQyh5Yayv7SvFgP-174" vertex="1">
          <mxGeometry x="45" width="45" height="37" as="geometry">
            <mxRectangle width="60" height="47" as="alternateBounds" />
          </mxGeometry>
        </mxCell>
        <mxCell id="k8lfUsQyh5Yayv7SvFgP-177" value="7,8" style="connectable=0;recursiveResize=0;strokeColor=inherit;fillColor=none;align=center;whiteSpace=wrap;html=1;" parent="k8lfUsQyh5Yayv7SvFgP-174" vertex="1">
          <mxGeometry y="37" width="45" height="37" as="geometry">
            <mxRectangle width="60" height="47" as="alternateBounds" />
          </mxGeometry>
        </mxCell>
        <mxCell id="k8lfUsQyh5Yayv7SvFgP-178" value="8,8" style="connectable=0;recursiveResize=0;strokeColor=inherit;fillColor=none;align=center;whiteSpace=wrap;html=1;" parent="k8lfUsQyh5Yayv7SvFgP-174" vertex="1">
          <mxGeometry x="45" y="37" width="45" height="37" as="geometry">
            <mxRectangle width="60" height="47" as="alternateBounds" />
          </mxGeometry>
        </mxCell>
        <mxCell id="k8lfUsQyh5Yayv7SvFgP-179" value="" style="group" parent="1" vertex="1" connectable="0">
          <mxGeometry x="1220" y="480" width="90" height="74" as="geometry" />
        </mxCell>
        <mxCell id="k8lfUsQyh5Yayv7SvFgP-180" value="8,8" style="connectable=0;recursiveResize=0;strokeColor=inherit;fillColor=none;align=center;whiteSpace=wrap;html=1;" parent="k8lfUsQyh5Yayv7SvFgP-179" vertex="1">
          <mxGeometry width="45" height="37" as="geometry">
            <mxRectangle width="60" height="47" as="alternateBounds" />
          </mxGeometry>
        </mxCell>
        <mxCell id="k8lfUsQyh5Yayv7SvFgP-181" value="29,8" style="connectable=0;recursiveResize=0;strokeColor=inherit;fillColor=none;align=center;whiteSpace=wrap;html=1;" parent="k8lfUsQyh5Yayv7SvFgP-179" vertex="1">
          <mxGeometry x="45" width="45" height="37" as="geometry">
            <mxRectangle width="60" height="47" as="alternateBounds" />
          </mxGeometry>
        </mxCell>
        <mxCell id="k8lfUsQyh5Yayv7SvFgP-182" value="8,8" style="connectable=0;recursiveResize=0;strokeColor=inherit;fillColor=none;align=center;whiteSpace=wrap;html=1;" parent="k8lfUsQyh5Yayv7SvFgP-179" vertex="1">
          <mxGeometry y="37" width="45" height="37" as="geometry">
            <mxRectangle width="60" height="47" as="alternateBounds" />
          </mxGeometry>
        </mxCell>
        <mxCell id="k8lfUsQyh5Yayv7SvFgP-183" value="29,8" style="connectable=0;recursiveResize=0;strokeColor=inherit;fillColor=none;align=center;whiteSpace=wrap;html=1;" parent="k8lfUsQyh5Yayv7SvFgP-179" vertex="1">
          <mxGeometry x="45" y="37" width="45" height="37" as="geometry">
            <mxRectangle width="60" height="47" as="alternateBounds" />
          </mxGeometry>
        </mxCell>
        <mxCell id="k8lfUsQyh5Yayv7SvFgP-184" value="" style="group" parent="1" vertex="1" connectable="0">
          <mxGeometry x="1160" y="810" width="90" height="74" as="geometry" />
        </mxCell>
        <mxCell id="k8lfUsQyh5Yayv7SvFgP-185" value="6,8" style="connectable=0;recursiveResize=0;strokeColor=inherit;fillColor=none;align=center;whiteSpace=wrap;html=1;" parent="k8lfUsQyh5Yayv7SvFgP-184" vertex="1">
          <mxGeometry width="45" height="37" as="geometry">
            <mxRectangle width="60" height="47" as="alternateBounds" />
          </mxGeometry>
        </mxCell>
        <mxCell id="k8lfUsQyh5Yayv7SvFgP-186" value="27,8" style="connectable=0;recursiveResize=0;strokeColor=inherit;fillColor=none;align=center;whiteSpace=wrap;html=1;" parent="k8lfUsQyh5Yayv7SvFgP-184" vertex="1">
          <mxGeometry x="45" width="45" height="37" as="geometry">
            <mxRectangle width="60" height="47" as="alternateBounds" />
          </mxGeometry>
        </mxCell>
        <mxCell id="k8lfUsQyh5Yayv7SvFgP-187" value="8,8" style="connectable=0;recursiveResize=0;strokeColor=inherit;fillColor=none;align=center;whiteSpace=wrap;html=1;" parent="k8lfUsQyh5Yayv7SvFgP-184" vertex="1">
          <mxGeometry y="37" width="45" height="37" as="geometry">
            <mxRectangle width="60" height="47" as="alternateBounds" />
          </mxGeometry>
        </mxCell>
        <mxCell id="k8lfUsQyh5Yayv7SvFgP-188" value="29,8" style="connectable=0;recursiveResize=0;strokeColor=inherit;fillColor=none;align=center;whiteSpace=wrap;html=1;" parent="k8lfUsQyh5Yayv7SvFgP-184" vertex="1">
          <mxGeometry x="45" y="37" width="45" height="37" as="geometry">
            <mxRectangle width="60" height="47" as="alternateBounds" />
          </mxGeometry>
        </mxCell>
        <mxCell id="k8lfUsQyh5Yayv7SvFgP-189" value="" style="group" parent="1" vertex="1" connectable="0">
          <mxGeometry x="1320" y="560" width="90" height="74" as="geometry" />
        </mxCell>
        <mxCell id="k8lfUsQyh5Yayv7SvFgP-190" value="29,8" style="connectable=0;recursiveResize=0;strokeColor=inherit;fillColor=none;align=center;whiteSpace=wrap;html=1;" parent="k8lfUsQyh5Yayv7SvFgP-189" vertex="1">
          <mxGeometry width="45" height="37" as="geometry">
            <mxRectangle width="60" height="47" as="alternateBounds" />
          </mxGeometry>
        </mxCell>
        <mxCell id="k8lfUsQyh5Yayv7SvFgP-191" value="34,8" style="connectable=0;recursiveResize=0;strokeColor=inherit;fillColor=none;align=center;whiteSpace=wrap;html=1;" parent="k8lfUsQyh5Yayv7SvFgP-189" vertex="1">
          <mxGeometry x="45" width="45" height="37" as="geometry">
            <mxRectangle width="60" height="47" as="alternateBounds" />
          </mxGeometry>
        </mxCell>
        <mxCell id="k8lfUsQyh5Yayv7SvFgP-192" value="29,8" style="connectable=0;recursiveResize=0;strokeColor=inherit;fillColor=none;align=center;whiteSpace=wrap;html=1;" parent="k8lfUsQyh5Yayv7SvFgP-189" vertex="1">
          <mxGeometry y="37" width="45" height="37" as="geometry">
            <mxRectangle width="60" height="47" as="alternateBounds" />
          </mxGeometry>
        </mxCell>
        <mxCell id="k8lfUsQyh5Yayv7SvFgP-193" value="34,8" style="connectable=0;recursiveResize=0;strokeColor=inherit;fillColor=none;align=center;whiteSpace=wrap;html=1;" parent="k8lfUsQyh5Yayv7SvFgP-189" vertex="1">
          <mxGeometry x="45" y="37" width="45" height="37" as="geometry">
            <mxRectangle width="60" height="47" as="alternateBounds" />
          </mxGeometry>
        </mxCell>
        <mxCell id="k8lfUsQyh5Yayv7SvFgP-194" value="" style="group" parent="1" vertex="1" connectable="0">
          <mxGeometry x="1480" y="430" width="90" height="74" as="geometry" />
        </mxCell>
        <mxCell id="k8lfUsQyh5Yayv7SvFgP-195" value="34,8" style="connectable=0;recursiveResize=0;strokeColor=inherit;fillColor=none;align=center;whiteSpace=wrap;html=1;" parent="k8lfUsQyh5Yayv7SvFgP-194" vertex="1">
          <mxGeometry width="45" height="37" as="geometry">
            <mxRectangle width="60" height="47" as="alternateBounds" />
          </mxGeometry>
        </mxCell>
        <mxCell id="k8lfUsQyh5Yayv7SvFgP-196" value="40,8" style="connectable=0;recursiveResize=0;strokeColor=inherit;fillColor=none;align=center;whiteSpace=wrap;html=1;" parent="k8lfUsQyh5Yayv7SvFgP-194" vertex="1">
          <mxGeometry x="45" width="45" height="37" as="geometry">
            <mxRectangle width="60" height="47" as="alternateBounds" />
          </mxGeometry>
        </mxCell>
        <mxCell id="k8lfUsQyh5Yayv7SvFgP-197" value="34,8" style="connectable=0;recursiveResize=0;strokeColor=inherit;fillColor=none;align=center;whiteSpace=wrap;html=1;" parent="k8lfUsQyh5Yayv7SvFgP-194" vertex="1">
          <mxGeometry y="37" width="45" height="37" as="geometry">
            <mxRectangle width="60" height="47" as="alternateBounds" />
          </mxGeometry>
        </mxCell>
        <mxCell id="k8lfUsQyh5Yayv7SvFgP-198" value="40,8" style="connectable=0;recursiveResize=0;strokeColor=inherit;fillColor=none;align=center;whiteSpace=wrap;html=1;" parent="k8lfUsQyh5Yayv7SvFgP-194" vertex="1">
          <mxGeometry x="45" y="37" width="45" height="37" as="geometry">
            <mxRectangle width="60" height="47" as="alternateBounds" />
          </mxGeometry>
        </mxCell>
        <mxCell id="k8lfUsQyh5Yayv7SvFgP-199" value="" style="group" parent="1" vertex="1" connectable="0">
          <mxGeometry x="1480" y="680" width="90" height="74" as="geometry" />
        </mxCell>
        <mxCell id="k8lfUsQyh5Yayv7SvFgP-200" value="40,8" style="connectable=0;recursiveResize=0;strokeColor=inherit;fillColor=none;align=center;whiteSpace=wrap;html=1;" parent="k8lfUsQyh5Yayv7SvFgP-199" vertex="1">
          <mxGeometry width="45" height="37" as="geometry">
            <mxRectangle width="60" height="47" as="alternateBounds" />
          </mxGeometry>
        </mxCell>
        <mxCell id="k8lfUsQyh5Yayv7SvFgP-201" value="42,8" style="connectable=0;recursiveResize=0;strokeColor=inherit;fillColor=none;align=center;whiteSpace=wrap;html=1;" parent="k8lfUsQyh5Yayv7SvFgP-199" vertex="1">
          <mxGeometry x="45" width="45" height="37" as="geometry">
            <mxRectangle width="60" height="47" as="alternateBounds" />
          </mxGeometry>
        </mxCell>
        <mxCell id="k8lfUsQyh5Yayv7SvFgP-202" value="40,8" style="connectable=0;recursiveResize=0;strokeColor=inherit;fillColor=none;align=center;whiteSpace=wrap;html=1;" parent="k8lfUsQyh5Yayv7SvFgP-199" vertex="1">
          <mxGeometry y="37" width="45" height="37" as="geometry">
            <mxRectangle width="60" height="47" as="alternateBounds" />
          </mxGeometry>
        </mxCell>
        <mxCell id="k8lfUsQyh5Yayv7SvFgP-203" value="42,8" style="connectable=0;recursiveResize=0;strokeColor=inherit;fillColor=none;align=center;whiteSpace=wrap;html=1;" parent="k8lfUsQyh5Yayv7SvFgP-199" vertex="1">
          <mxGeometry x="45" y="37" width="45" height="37" as="geometry">
            <mxRectangle width="60" height="47" as="alternateBounds" />
          </mxGeometry>
        </mxCell>
        <mxCell id="k8lfUsQyh5Yayv7SvFgP-204" value="" style="group" parent="1" vertex="1" connectable="0">
          <mxGeometry x="1470" y="970" width="90" height="74" as="geometry" />
        </mxCell>
        <mxCell id="k8lfUsQyh5Yayv7SvFgP-205" value="42,8" style="connectable=0;recursiveResize=0;strokeColor=inherit;fillColor=none;align=center;whiteSpace=wrap;html=1;" parent="k8lfUsQyh5Yayv7SvFgP-204" vertex="1">
          <mxGeometry width="45" height="37" as="geometry">
            <mxRectangle width="60" height="47" as="alternateBounds" />
          </mxGeometry>
        </mxCell>
        <mxCell id="k8lfUsQyh5Yayv7SvFgP-206" value="44,8" style="connectable=0;recursiveResize=0;strokeColor=inherit;fillColor=none;align=center;whiteSpace=wrap;html=1;" parent="k8lfUsQyh5Yayv7SvFgP-204" vertex="1">
          <mxGeometry x="45" width="45" height="37" as="geometry">
            <mxRectangle width="60" height="47" as="alternateBounds" />
          </mxGeometry>
        </mxCell>
        <mxCell id="k8lfUsQyh5Yayv7SvFgP-207" value="42,8" style="connectable=0;recursiveResize=0;strokeColor=inherit;fillColor=none;align=center;whiteSpace=wrap;html=1;" parent="k8lfUsQyh5Yayv7SvFgP-204" vertex="1">
          <mxGeometry y="37" width="45" height="37" as="geometry">
            <mxRectangle width="60" height="47" as="alternateBounds" />
          </mxGeometry>
        </mxCell>
        <mxCell id="k8lfUsQyh5Yayv7SvFgP-208" value="44,8" style="connectable=0;recursiveResize=0;strokeColor=inherit;fillColor=none;align=center;whiteSpace=wrap;html=1;" parent="k8lfUsQyh5Yayv7SvFgP-204" vertex="1">
          <mxGeometry x="45" y="37" width="45" height="37" as="geometry">
            <mxRectangle width="60" height="47" as="alternateBounds" />
          </mxGeometry>
        </mxCell>
        <mxCell id="k8lfUsQyh5Yayv7SvFgP-209" value="" style="group" parent="1" vertex="1" connectable="0">
          <mxGeometry x="1600" y="970" width="90" height="74" as="geometry" />
        </mxCell>
        <mxCell id="k8lfUsQyh5Yayv7SvFgP-210" value="44,8" style="connectable=0;recursiveResize=0;strokeColor=inherit;fillColor=none;align=center;whiteSpace=wrap;html=1;" parent="k8lfUsQyh5Yayv7SvFgP-209" vertex="1">
          <mxGeometry width="45" height="37" as="geometry">
            <mxRectangle width="60" height="47" as="alternateBounds" />
          </mxGeometry>
        </mxCell>
        <mxCell id="k8lfUsQyh5Yayv7SvFgP-211" value="46,8" style="connectable=0;recursiveResize=0;strokeColor=inherit;fillColor=none;align=center;whiteSpace=wrap;html=1;" parent="k8lfUsQyh5Yayv7SvFgP-209" vertex="1">
          <mxGeometry x="45" width="45" height="37" as="geometry">
            <mxRectangle width="60" height="47" as="alternateBounds" />
          </mxGeometry>
        </mxCell>
        <mxCell id="k8lfUsQyh5Yayv7SvFgP-212" value="44,8" style="connectable=0;recursiveResize=0;strokeColor=inherit;fillColor=none;align=center;whiteSpace=wrap;html=1;" parent="k8lfUsQyh5Yayv7SvFgP-209" vertex="1">
          <mxGeometry y="37" width="45" height="37" as="geometry">
            <mxRectangle width="60" height="47" as="alternateBounds" />
          </mxGeometry>
        </mxCell>
        <mxCell id="k8lfUsQyh5Yayv7SvFgP-213" value="46,8" style="connectable=0;recursiveResize=0;strokeColor=inherit;fillColor=none;align=center;whiteSpace=wrap;html=1;" parent="k8lfUsQyh5Yayv7SvFgP-209" vertex="1">
          <mxGeometry x="45" y="37" width="45" height="37" as="geometry">
            <mxRectangle width="60" height="47" as="alternateBounds" />
          </mxGeometry>
        </mxCell>
        <mxCell id="k8lfUsQyh5Yayv7SvFgP-214" value="" style="group" parent="1" vertex="1" connectable="0">
          <mxGeometry x="1720" y="800" width="90" height="74" as="geometry" />
        </mxCell>
        <mxCell id="k8lfUsQyh5Yayv7SvFgP-215" value="46,8" style="connectable=0;recursiveResize=0;strokeColor=inherit;fillColor=none;align=center;whiteSpace=wrap;html=1;" parent="k8lfUsQyh5Yayv7SvFgP-214" vertex="1">
          <mxGeometry width="45" height="37" as="geometry">
            <mxRectangle width="60" height="47" as="alternateBounds" />
          </mxGeometry>
        </mxCell>
        <mxCell id="k8lfUsQyh5Yayv7SvFgP-216" value="46,8" style="connectable=0;recursiveResize=0;strokeColor=inherit;fillColor=none;align=center;whiteSpace=wrap;html=1;" parent="k8lfUsQyh5Yayv7SvFgP-214" vertex="1">
          <mxGeometry x="45" width="45" height="37" as="geometry">
            <mxRectangle width="60" height="47" as="alternateBounds" />
          </mxGeometry>
        </mxCell>
        <mxCell id="k8lfUsQyh5Yayv7SvFgP-217" value="46,8" style="connectable=0;recursiveResize=0;strokeColor=inherit;fillColor=none;align=center;whiteSpace=wrap;html=1;" parent="k8lfUsQyh5Yayv7SvFgP-214" vertex="1">
          <mxGeometry y="37" width="45" height="37" as="geometry">
            <mxRectangle width="60" height="47" as="alternateBounds" />
          </mxGeometry>
        </mxCell>
        <mxCell id="k8lfUsQyh5Yayv7SvFgP-218" value="46,8" style="connectable=0;recursiveResize=0;strokeColor=inherit;fillColor=none;align=center;whiteSpace=wrap;html=1;" parent="k8lfUsQyh5Yayv7SvFgP-214" vertex="1">
          <mxGeometry x="45" y="37" width="45" height="37" as="geometry">
            <mxRectangle width="60" height="47" as="alternateBounds" />
          </mxGeometry>
        </mxCell>
        <mxCell id="HiWu-JYwDWKjyQeRnMct-1" value="H=2" style="text;html=1;align=center;verticalAlign=middle;resizable=0;points=[];autosize=1;strokeColor=none;fillColor=none;" parent="1" vertex="1">
          <mxGeometry x="1195" y="908" width="50" height="30" as="geometry" />
        </mxCell>
        <mxCell id="HiWu-JYwDWKjyQeRnMct-5" value="&lt;span style=&quot;color: rgb(0, 0, 0); font-family: Helvetica; font-size: 12px; font-style: normal; font-variant-ligatures: normal; font-variant-caps: normal; font-weight: 400; letter-spacing: normal; orphans: 2; text-align: center; text-indent: 0px; text-transform: none; widows: 2; word-spacing: 0px; -webkit-text-stroke-width: 0px; background-color: rgb(251, 251, 251); text-decoration-thickness: initial; text-decoration-style: initial; text-decoration-color: initial; float: none; display: inline !important;&quot;&gt;H=1&lt;/span&gt;" style="text;whiteSpace=wrap;html=1;" parent="1" vertex="1">
          <mxGeometry x="1080" y="930" width="30" height="26" as="geometry" />
        </mxCell>
        <mxCell id="-noM--TvreRfiqz0K5aq-1" value="H=0,8" style="text;html=1;align=center;verticalAlign=middle;resizable=0;points=[];autosize=1;strokeColor=none;fillColor=none;" vertex="1" parent="1">
          <mxGeometry x="370" y="52" width="60" height="30" as="geometry" />
        </mxCell>
        <mxCell id="-noM--TvreRfiqz0K5aq-3" value="H=2" style="text;html=1;align=center;verticalAlign=middle;resizable=0;points=[];autosize=1;strokeColor=none;fillColor=none;" vertex="1" parent="1">
          <mxGeometry x="1010" y="135" width="50" height="30" as="geometry" />
        </mxCell>
        <mxCell id="-noM--TvreRfiqz0K5aq-4" value="H=1" style="text;html=1;align=center;verticalAlign=middle;resizable=0;points=[];autosize=1;strokeColor=none;fillColor=none;" vertex="1" parent="1">
          <mxGeometry x="790" y="650" width="50" height="30" as="geometry" />
        </mxCell>
        <mxCell id="-noM--TvreRfiqz0K5aq-5" value="H=2" style="text;html=1;align=center;verticalAlign=middle;resizable=0;points=[];autosize=1;strokeColor=none;fillColor=none;" vertex="1" parent="1">
          <mxGeometry x="1030" y="745" width="50" height="30" as="geometry" />
        </mxCell>
      </root>
    </mxGraphModel>
  </diagram>
</mxfile>
